<svg fill="#3c6b33" height="800" width="800" xmlns="http://www.w3.org/2000/svg" viewBox="0 0 470 470"><path d="M421.865 310.028l-36.496-65.026h5.443a7.5 7.5 0 006.54-11.17l-36.496-65.026h5.444a7.5 7.5 0 006.54-11.17l-40.14-71.52a7.502 7.502 0 00-13.082 0L305.91 110.54a7.5 7.5 0 0013.081 7.341l7.167-12.771 27.33 48.696h-5.444a7.5 7.5 0 00-6.54 11.17L378 230.002h-5.443a7.5 7.5 0 00-6.54 11.17l36.496 65.026h-23.131a7.5 7.5 0 000 15h35.94a7.5 7.5 0 006.543-11.17zm-323.751 3.671a7.5 7.5 0 00-7.5-7.5h-23.13l36.496-65.026a7.5 7.5 0 00-6.54-11.17h-5.444l36.496-65.026a7.5 7.5 0 00-6.54-11.17h-5.443l27.33-48.696 7.167 12.771a7.501 7.501 0 0013.081-7.341l-13.708-24.424a7.502 7.502 0 00-13.082-.001l-40.14 71.52a7.5 7.5 0 006.54 11.17h5.443l-36.496 65.026a7.5 7.5 0 006.54 11.17h5.444l-36.496 65.026a7.5 7.5 0 006.54 11.17h35.94a7.5 7.5 0 007.502-7.499zm125.81-136.336a7.5 7.5 0 00-7.5 7.5v10a7.5 7.5 0 0015 0v-10a7.5 7.5 0 00-7.5-7.5zm29.854 67.662a7.5 7.5 0 00-7.5 7.5v10a7.5 7.5 0 0015 0v-10a7.5 7.5 0 00-7.5-7.5z"/><path d="M401.17 68.83C356.785 24.444 297.771 0 235 0S113.215 24.444 68.83 68.83C24.444 113.215 0 172.229 0 235s24.444 121.785 68.83 166.17C113.215 445.556 172.229 470 235 470s121.785-24.444 166.17-68.83C445.556 356.785 470 297.771 470 235s-24.444-121.785-68.83-166.17zM235 455c-121.309 0-220-98.691-220-220S113.691 15 235 15s220 98.691 220 220-98.691 220-220 220z"/><path d="M386.012 354.642h-52.35V343.7a7.5 7.5 0 00-15 0v10.942H242.5V321.2h102.483a7.5 7.5 0 006.54-11.17l-46.481-82.818h9.726a7.5 7.5 0 006.269-11.618l-46.23-82.372h9.706c4.162 0 7.52-3.358 7.52-7.5a7.468 7.468 0 00-1.231-4.119L241.54 33.829a7.501 7.501 0 00-13.081 0l-49.513 88.22a7.5 7.5 0 006.54 11.17h9.706l-46.481 82.819a7.5 7.5 0 006.54 11.17h9.706l-46.481 82.818a7.5 7.5 0 006.54 11.17H227.5v33.442h-76.163v-10.942a7.5 7.5 0 00-15 0v10.942H83.983a7.499 7.499 0 00-5.733 12.335C117.383 413.384 174.516 440 235 440c22.846 0 45.308-3.758 66.762-11.169a7.5 7.5 0 10-4.898-14.178C276.989 421.519 256.175 425 235 425c-50.456 0-98.397-19.989-133.928-55.358h267.856c-13.43 13.375-28.709 24.615-45.594 33.523a7.5 7.5 0 006.999 13.267c23.56-12.429 44.222-29.068 61.413-49.455a7.5 7.5 0 00-5.734-12.335zm-248.186-48.443l46.481-82.818a7.5 7.5 0 00-6.54-11.17h-9.706l46.481-82.819a7.5 7.5 0 00-6.54-11.17h-9.706L235 52.824l36.703 65.396h-9.706a7.5 7.5 0 00-6.54 11.17l46.481 82.819h-9.706a7.5 7.5 0 00-6.54 11.17l46.481 82.818H137.826z"/></svg>